<?xml version="1.0" encoding="utf-8" ?>
<svg xmlns="http://www.w3.org/2000/svg" xmlns:ev="http://www.w3.org/2001/xml-events" xmlns:xlink="http://www.w3.org/1999/xlink" baseProfile="full" height="100%" version="1.1" width="100%">
  <defs/>

  <rect fill="#e2eedd" height="400" width="500" x="0" y="0"/>


  <line stroke="#d59f0d" stroke-width="10" x1="50" x2="177" y1="46" y2="40"/>


  <text font-family="Arial" font-size="16" style="text-shadow: 0 0 5px #fff;" x="108.5" y="48.0">6</text>



  <line stroke="#d59f0d" stroke-width="10" x1="177" x2="187" y1="40" y2="132"/>
  <text font-family="Arial" font-size="16" style="text-shadow: 0 0 5px #fff;" x="177.0" y="91.0">8</text>
  <line stroke="#d59f0d" stroke-width="10" x1="305" x2="443" y1="41" y2="49"/>
  <text font-family="Arial" font-size="16" style="text-shadow: 0 0 5px #fff;" x="369.0" y="50.0">4</text>
  <line stroke="#d59f0d" stroke-width="10" x1="305" x2="312" y1="41" y2="137"/>
  <text font-family="Arial" font-size="16" style="text-shadow: 0 0 5px #fff;" x="303.5" y="94.0">9</text>
  <line stroke="#d59f0d" stroke-width="10" x1="305" x2="437" y1="41" y2="136"/>
  <text font-family="Arial" font-size="16" style="text-shadow: 0 0 5px #fff;" x="366.0" y="93.5">15</text>
  <line stroke="#d59f0d" stroke-width="10" x1="61" x2="187" y1="143" y2="132"/>
  <text font-family="Arial" font-size="16" style="text-shadow: 0 0 5px #fff;" x="119.0" y="142.5">4</text>
  <line stroke="#d59f0d" stroke-width="10" x1="61" x2="185" y1="143" y2="244"/>
  <text font-family="Arial" font-size="16" style="text-shadow: 0 0 5px #fff;" x="118.0" y="198.5">10</text>
  <line stroke="#d59f0d" stroke-width="10" x1="187" x2="312" y1="132" y2="137"/>
  <text font-family="Arial" font-size="16" style="text-shadow: 0 0 5px #fff;" x="244.5" y="139.5">11</text>
  <line stroke="#d59f0d" stroke-width="10" x1="187" x2="185" y1="132" y2="244"/>
  <text font-family="Arial" font-size="16" style="text-shadow: 0 0 5px #fff;" x="181.0" y="193.0">6</text>
  <line stroke="#d59f0d" stroke-width="10" x1="187" x2="306" y1="132" y2="245"/>
  <text font-family="Arial" font-size="16" style="text-shadow: 0 0 5px #fff;" x="241.5" y="193.5">13</text>
  <line stroke="#d59f0d" stroke-width="10" x1="312" x2="437" y1="137" y2="136"/>
  <text font-family="Arial" font-size="16" style="text-shadow: 0 0 5px #fff;" x="369.5" y="141.5">4</text>
  <line stroke="#d59f0d" stroke-width="10" x1="312" x2="443" y1="137" y2="242"/>
  <text font-family="Arial" font-size="16" style="text-shadow: 0 0 5px #fff;" x="372.5" y="194.5">10</text>
  <line stroke="#d59f0d" stroke-width="10" x1="437" x2="443" y1="136" y2="242"/>
  <text font-family="Arial" font-size="16" style="text-shadow: 0 0 5px #fff;" x="435.0" y="194.0">7</text>
  <line stroke="#d59f0d" stroke-width="10" x1="185" x2="306" y1="244" y2="245"/>
  <text font-family="Arial" font-size="16" style="text-shadow: 0 0 5px #fff;" x="240.5" y="249.5">12</text>
  <line stroke="#d59f0d" stroke-width="10" x1="306" x2="310" y1="245" y2="348"/>
  <text font-family="Arial" font-size="16" style="text-shadow: 0 0 5px #fff;" x="303.0" y="301.5">10</text>
  <line stroke="#d59f0d" stroke-width="10" x1="443" x2="310" y1="242" y2="348"/>
  <text font-family="Arial" font-size="16" style="text-shadow: 0 0 5px #fff;" x="371.5" y="300.0">7</text>
  <line stroke="#d59f0d" stroke-width="10" x1="193" x2="310" y1="339" y2="348"/>
  <text font-family="Arial" font-size="16" style="text-shadow: 0 0 5px #fff;" x="246.5" y="348.5">3</text>
  <line stroke="#d59f0d" stroke-width="10" x1="310" x2="445" y1="348" y2="338"/>
  <text font-family="Arial" font-size="16" style="text-shadow: 0 0 5px #fff;" x="372.5" y="348.0">6</text>
  <line stroke="#d59f0d" stroke-width="10" x1="68" x2="63" y1="238" y2="335"/>
  <text font-family="Arial" font-size="16" style="text-shadow: 0 0 5px #fff;" x="60.5" y="291.5">2</text>

  <circle cx="445" cy="338" fill="white" r="24" stroke="#002f6c"/>


  <text font-family="Arial" font-size="14" x="440" y="343">A</text>
  <circle cx="312" cy="137" fill="white" r="24" stroke="#002f6c"/>
  <text font-family="Arial" font-size="14" x="307" y="142">B</text>
  <circle cx="68" cy="238" fill="white" r="24" stroke="#002f6c"/>
  <text font-family="Arial" font-size="14" x="63" y="243">C</text>
  <circle cx="63" cy="335" fill="white" r="24" stroke="#002f6c"/>
  <text font-family="Arial" font-size="14" x="58" y="340">D</text>
  <circle cx="443" cy="49" fill="white" r="24" stroke="#002f6c"/>
  <text font-family="Arial" font-size="14" x="438" y="54">E</text>
  <circle cx="185" cy="244" fill="white" r="24" stroke="#002f6c"/>
  <text font-family="Arial" font-size="14" x="180" y="249">F</text>
  <circle cx="61" cy="143" fill="white" r="24" stroke="#002f6c"/>
  <text font-family="Arial" font-size="14" x="56" y="148">G</text>
  <circle cx="187" cy="132" fill="white" r="24" stroke="#002f6c"/>
  <text font-family="Arial" font-size="14" x="182" y="137">H</text>
  <circle cx="50" cy="46" fill="white" r="24" stroke="#002f6c"/>
  <text font-family="Arial" font-size="14" x="45" y="51">I</text>
  <circle cx="306" cy="245" fill="white" r="24" stroke="#002f6c"/>
  <text font-family="Arial" font-size="14" x="301" y="250">J</text>
  <circle cx="193" cy="339" fill="white" r="24" stroke="#002f6c"/>
  <text font-family="Arial" font-size="14" x="188" y="344">K</text>
  <circle cx="437" cy="136" fill="white" r="24" stroke="#002f6c"/>
  <text font-family="Arial" font-size="14" x="432" y="141">L</text>
  <circle cx="177" cy="40" fill="white" r="24" stroke="#002f6c"/>
  <text font-family="Arial" font-size="14" x="172" y="45">M</text>
  <circle cx="310" cy="348" fill="white" r="24" stroke="#002f6c"/>
  <text font-family="Arial" font-size="14" x="305" y="353">N</text>
  <circle cx="305" cy="41" fill="white" r="24" stroke="#002f6c"/>
  <text font-family="Arial" font-size="14" x="300" y="46">O</text>
  <circle cx="443" cy="242" fill="white" r="24" stroke="#002f6c"/>
  <text font-family="Arial" font-size="14" x="438" y="247">P</text>
</svg>
